<svg width="65" height="65" viewBox="0 0 65 65" fill="none" xmlns="http://www.w3.org/2000/svg">
<rect width="64.7077" height="64.7077" rx="12.9415" fill="#F9FAFB"/>
<path d="M43.6775 30.7363H21.0298C19.243 30.7363 17.7944 32.1849 17.7944 33.9717V45.2956C17.7944 47.0824 19.243 48.531 21.0298 48.531H43.6775C45.4644 48.531 46.9129 47.0824 46.9129 45.2956V33.9717C46.9129 32.1849 45.4644 30.7363 43.6775 30.7363Z" stroke="#C83B06" stroke-width="3.23539" stroke-linecap="round" stroke-linejoin="round"/>
<path d="M24.2651 30.7362V24.2655C24.2651 22.1203 25.1173 20.0629 26.6342 18.5461C28.1511 17.0292 30.2084 16.177 32.3536 16.177C34.4988 16.177 36.5561 17.0292 38.073 18.5461C39.5899 20.0629 40.4421 22.1203 40.4421 24.2655V30.7362" stroke="#C83B06" stroke-width="3.23539" stroke-linecap="round" stroke-linejoin="round"/>
</svg>
