<svg width="22" height="21" viewBox="0 0 22 21" fill="none" xmlns="http://www.w3.org/2000/svg">
<path d="M15.0477 9.34585C15.3207 9.34585 15.5532 9.24975 15.7454 9.05755C15.9376 8.86534 16.0337 8.63277 16.0337 8.35983C16.0337 8.08688 15.9376 7.85431 15.7454 7.66211C15.5532 7.4699 15.3207 7.3738 15.0477 7.3738C14.7748 7.3738 14.5422 7.4699 14.35 7.66211C14.1578 7.85431 14.0617 8.08688 14.0617 8.35983C14.0617 8.63277 14.1578 8.86534 14.35 9.05755C14.5422 9.24975 14.7748 9.34585 15.0477 9.34585ZM6.13053 6.96649H11.7038V5.29456H6.13053V6.96649ZM2.64728 20.0636C2.05852 18.0315 1.47012 16.0094 0.88207 13.9974C0.294023 11.9853 0 9.92033 0 7.8025C0 6.25058 0.540887 4.93373 1.62266 3.85196C2.70443 2.77018 4.02128 2.2293 5.5732 2.2293H11.4251C11.9353 1.55908 12.5473 1.01998 13.2611 0.611987C13.9749 0.203996 14.7562 0 15.605 0C15.9123 0 16.1749 0.105387 16.3928 0.316162C16.6107 0.526936 16.7197 0.785939 16.7197 1.09317C16.7197 1.21464 16.6804 1.38541 16.6018 1.60547C16.5132 1.87413 16.4328 2.14208 16.3606 2.40932C16.2884 2.67655 16.2266 2.95022 16.1752 3.23031L19.0754 6.13057H21.1782V12.9406L18.1366 13.9395L16.3017 20.0636H11.1465V17.8343H7.80246V20.0636H2.64728Z" fill="#EC5B13"/>
</svg>
